<?xml version="1.0"?>
<svg xmlns="http://www.w3.org/2000/svg">
  <symbol id="icon-box" fill="currentColor" viewBox="0 0 16 16">
    <path d="M8.186 1.113a.5.5 0 0 0-.372 0L1.846 3.5 8 5.961 14.154 3.5zM15 4.239l-6.5 2.6v7.922l6.5-2.6V4.24zM7.5 14.762V6.838L1 4.239v7.923zM7.443.184a1.5 1.5 0 0 1 1.114 0l7.129 2.852A.5.5 0 0 1 16 3.5v8.662a1 1 0 0 1-.629.928l-7.185 2.874a.5.5 0 0 1-.372 0L.63 13.09a1 1 0 0 1-.63-.928V3.5a.5.5 0 0 1 .314-.464z" />
  </symbol>
  <symbol id="icon-clock" fill="currentColor" viewBox="0 0 16 16">
    <path d="M8.515 1.019A7 7 0 0 0 8 1V0a8 8 0 0 1 .589.022zm2.004.45a7 7 0 0 0-.985-.299l.219-.976q.576.129 1.126.342zm1.37.71a7 7 0 0 0-.439-.27l.493-.87a8 8 0 0 1 .979.654l-.615.789a7 7 0 0 0-.418-.302zm1.834 1.79a7 7 0 0 0-.653-.796l.724-.69q.406.429.747.91zm.744 1.352a7 7 0 0 0-.214-.468l.893-.45a8 8 0 0 1 .45 1.088l-.95.313a7 7 0 0 0-.179-.483m.53 2.507a7 7 0 0 0-.1-1.025l.985-.17q.1.58.116 1.17zm-.131 1.538q.05-.254.081-.51l.993.123a8 8 0 0 1-.23 1.155l-.964-.267q.069-.247.12-.501m-.952 2.379q.276-.436.486-.908l.914.405q-.24.54-.555 1.038zm-.964 1.205q.183-.183.35-.378l.758.653a8 8 0 0 1-.401.432z" />
    <path d="M8 1a7 7 0 1 0 4.95 11.95l.707.707A8.001 8.001 0 1 1 8 0z" />
    <path d="M7.5 3a.5.5 0 0 1 .5.5v5.21l3.248 1.856a.5.5 0 0 1-.496.868l-3.5-2A.5.5 0 0 1 7 9V3.5a.5.5 0 0 1 .5-.5" />
  </symbol>
  <symbol id="icon-gear" fill="currentColor" viewBox="0 0 16 16">
    <path d="M8 4.754a3.246 3.246 0 1 0 0 6.492 3.246 3.246 0 0 0 0-6.492M5.754 8a2.246 2.246 0 1 1 4.492 0 2.246 2.246 0 0 1-4.492 0" />
    <path d="M9.796 1.343c-.527-1.79-3.065-1.79-3.592 0l-.094.319a.873.873 0 0 1-1.255.52l-.292-.16c-1.64-.892-3.433.902-2.54 2.541l.159.292a.873.873 0 0 1-.52 1.255l-.319.094c-1.79.527-1.79 3.065 0 3.592l.319.094a.873.873 0 0 1 .52 1.255l-.16.292c-.892 1.64.901 3.434 2.541 2.54l.292-.159a.873.873 0 0 1 1.255.52l.094.319c.527 1.79 3.065 1.79 3.592 0l.094-.319a.873.873 0 0 1 1.255-.52l.292.16c1.64.893 3.434-.902 2.54-2.541l-.159-.292a.873.873 0 0 1 .52-1.255l.319-.094c1.79-.527 1.79-3.065 0-3.592l-.319-.094a.873.873 0 0 1-.52-1.255l.16-.292c.893-1.64-.902-3.433-2.541-2.54l-.292.159a.873.873 0 0 1-1.255-.52zm-2.633.283c.246-.835 1.428-.835 1.674 0l.094.319a1.873 1.873 0 0 0 2.693 1.115l.291-.16c.764-.415 1.6.42 1.184 1.185l-.159.292a1.873 1.873 0 0 0 1.116 2.692l.318.094c.835.246.835 1.428 0 1.674l-.319.094a1.873 1.873 0 0 0-1.115 2.693l.16.291c.415.764-.42 1.6-1.185 1.184l-.291-.159a1.873 1.873 0 0 0-2.693 1.116l-.094.318c-.246.835-1.428.835-1.674 0l-.094-.319a1.873 1.873 0 0 0-2.692-1.115l-.292.16c-.764.415-1.6-.42-1.184-1.185l.159-.291A1.873 1.873 0 0 0 1.945 8.93l-.319-.094c-.835-.246-.835-1.428 0-1.674l.319-.094A1.873 1.873 0 0 0 3.06 4.377l-.16-.292c-.415-.764.42-1.6 1.185-1.184l.292.159a1.873 1.873 0 0 0 2.692-1.115z" />
  </symbol>
  <symbol id="icon-projects" fill="currentColor" viewBox="0 0 512 512">
    <path d="M478.604,82.17V50.089c0-27.618-22.469-50.086-50.086-50.086H294.953c-21.768,0-40.335,13.956-47.226,33.391H161.39 c-27.618,0-50.086,22.469-50.086,50.086c0,27.618,22.469,50.086,50.086,50.086h133.564c21.768,0,40.335-13.956,47.226-33.391 h33.409l-28.118,178.085h-46.951v-83.477c0-13.724-15.718-21.604-26.713-13.356l-106.851,80.138v-66.782 c0-13.723-15.718-21.605-26.713-13.356L6.678,281.6C2.474,284.753,0,289.7,0,294.956v200.346c0,9.22,7.475,16.695,16.695,16.695 h478.603c9.22,0,16.695-7.475,16.695-16.695V294.956C511.994,292.75,513.234,301.503,478.604,82.17z M475.761,278.261h-94.487 l5.272-33.391h83.943L475.761,278.261z M465.216,211.479h-73.398l5.272-33.391h62.853L465.216,211.479z M454.672,144.697h-52.309 l7.03-44.521h38.249L454.672,144.697z M328.344,66.785c-9.22,0-16.695,7.475-16.695,16.695c0,9.206-7.49,16.695-16.695,16.695 H161.39c-9.206,0-16.695-7.49-16.695-16.695c0-9.206,7.49-16.695,16.695-16.695h100.173c9.22,0,16.695-7.475,16.695-16.695 c0-9.206,7.49-16.695,16.695-16.695h133.564c9.206,0,16.695,7.49,16.695,16.695v16.695 C429.39,66.785,346.459,66.785,328.344,66.785z M478.604,478.607H33.391V303.305l100.173-75.13v66.782 c0,13.724,15.717,21.603,26.713,13.356l106.851-80.138v66.782c0,9.22,7.475,16.695,16.695,16.695h194.781V478.607z" />
    <path d="M422.952,345.044H356.17c-9.22,0-16.695,7.475-16.695,16.695v66.782c0,9.22,7.475,16.695,16.695,16.695h66.782 c9.22,0,16.695-7.475,16.695-16.695v-66.782C439.647,352.519,432.172,345.044,422.952,345.044z M406.256,411.825h-33.391v-33.391 h33.391V411.825z" />
    <path d="M289.388,345.044h-66.782c-9.22,0-16.695,7.474-16.695,16.695v66.782c0,9.22,7.475,16.695,16.695,16.695h66.782 c9.22,0,16.695-7.475,16.695-16.695v-66.782C306.084,352.519,298.609,345.044,289.388,345.044z M272.693,411.825h-33.391v-33.391 h33.391V411.825z" />
    <path d="M155.824,345.044H89.043c-9.22,0-16.695,7.475-16.695,16.695v66.782c0,9.22,7.475,16.695,16.695,16.695h66.782 c9.22,0,16.695-7.475,16.695-16.695v-66.782C172.52,352.518,165.045,345.044,155.824,345.044z M139.129,411.825h-33.391v-33.391 h33.391V411.825z" />
  </symbol>
  <symbol id="icon-arrow-left" fill="currentColor" viewBox="0 0 16 16">
    <path d="M10 12.796V3.204L4.519 8zm-.659.753-5.48-4.796a1 1 0 0 1 0-1.506l5.48-4.796A1 1 0 0 1 11 3.204v9.592a1 1 0 0 1-1.659.753"/>
  </symbol>
  <symbol id="icon-arrow-right" fill="currentColor" viewBox="0 0 16 16">
    <path d="M6 12.796V3.204L11.481 8zm.659.753 5.48-4.796a1 1 0 0 0 0-1.506L6.66 2.451C6.011 1.885 5 2.345 5 3.204v9.592a1 1 0 0 0 1.659.753"/>
  </symbol>
</svg>
