<svg xmlns="http://www.w3.org/2000/svg" viewBox="0 0 512 512" fill="currentColor">
  <path d="M478.604,82.17V50.089c0-27.618-22.469-50.086-50.086-50.086H294.953c-21.768,0-40.335,13.956-47.226,33.391H161.39 c-27.618,0-50.086,22.469-50.086,50.086c0,27.618,22.469,50.086,50.086,50.086h133.564c21.768,0,40.335-13.956,47.226-33.391 h33.409l-28.118,178.085h-46.951v-83.477c0-13.724-15.718-21.604-26.713-13.356l-106.851,80.138v-66.782 c0-13.723-15.718-21.605-26.713-13.356L6.678,281.6C2.474,284.753,0,289.7,0,294.956v200.346c0,9.22,7.475,16.695,16.695,16.695 h478.603c9.22,0,16.695-7.475,16.695-16.695V294.956C511.994,292.75,513.234,301.503,478.604,82.17z M475.761,278.261h-94.487 l5.272-33.391h83.943L475.761,278.261z M465.216,211.479h-73.398l5.272-33.391h62.853L465.216,211.479z M454.672,144.697h-52.309 l7.03-44.521h38.249L454.672,144.697z M328.344,66.785c-9.22,0-16.695,7.475-16.695,16.695c0,9.206-7.49,16.695-16.695,16.695 H161.39c-9.206,0-16.695-7.49-16.695-16.695c0-9.206,7.49-16.695,16.695-16.695h100.173c9.22,0,16.695-7.475,16.695-16.695 c0-9.206,7.49-16.695,16.695-16.695h133.564c9.206,0,16.695,7.49,16.695,16.695v16.695 C429.39,66.785,346.459,66.785,328.344,66.785z M478.604,478.607H33.391V303.305l100.173-75.13v66.782 c0,13.724,15.717,21.603,26.713,13.356l106.851-80.138v66.782c0,9.22,7.475,16.695,16.695,16.695h194.781V478.607z"/>
  <path d="M422.952,345.044H356.17c-9.22,0-16.695,7.475-16.695,16.695v66.782c0,9.22,7.475,16.695,16.695,16.695h66.782 c9.22,0,16.695-7.475,16.695-16.695v-66.782C439.647,352.519,432.172,345.044,422.952,345.044z M406.256,411.825h-33.391v-33.391 h33.391V411.825z"/>
  <path d="M289.388,345.044h-66.782c-9.22,0-16.695,7.474-16.695,16.695v66.782c0,9.22,7.475,16.695,16.695,16.695h66.782 c9.22,0,16.695-7.475,16.695-16.695v-66.782C306.084,352.519,298.609,345.044,289.388,345.044z M272.693,411.825h-33.391v-33.391 h33.391V411.825z"/>
  <path d="M155.824,345.044H89.043c-9.22,0-16.695,7.475-16.695,16.695v66.782c0,9.22,7.475,16.695,16.695,16.695h66.782 c9.22,0,16.695-7.475,16.695-16.695v-66.782C172.52,352.518,165.045,345.044,155.824,345.044z M139.129,411.825h-33.391v-33.391 h33.391V411.825z"/>
</svg>
